OpenSim_Sub08_CSStiffKnee_LCS.mot
version=1
nRows=26
nColumns=11
inDegrees=no
endheader
time	Bot_Shank	2nd_Bot_Shank	2nd_Top_Shank	Top_Shank	Bot_Thigh	Med_Thigh	Top_Thigh	BNOx	BNOy	BNOZ
13.20000000	8613.24593438	8908.16438487	9365.49074679	9123.22747004	10190.19116431	10856.46481820	11427.67840477	203.38512864	-70.45173374	142.89805192
13.21000000	8610.49704101	8904.58427676	9360.77779757	9118.03181201	10190.80080694	10868.16734243	11429.31829860	202.48350150	-70.80997427	144.42592207
13.22000000	8608.24474731	8902.15007359	9357.49103972	9112.93672003	10192.07231198	10883.96134670	11433.95173479	201.64021431	-71.15380041	146.10206241
13.23000000	8606.54576282	8900.86972363	9355.57551519	9108.10689391	10193.92442237	10903.06611148	11441.25150855	200.85304511	-71.48271130	147.85503870
13.24000000	8605.34438189	8900.62828060	9354.79537559	9103.71867881	10196.16972081	10924.16984870	11450.53411498	200.11424075	-71.79824321	149.57829710
13.25000000	8604.58436866	8901.31021857	9354.91391924	9099.94847481	10198.62028924	10945.95826524	11461.11436853	199.41602196	-72.10194199	151.16511810
13.26000000	8604.20948723	8902.80001158	9355.69444447	9096.97268199	10201.08820961	10967.11706797	11472.30708365	198.75060949	-72.39535351	152.50878221
13.27000000	8604.16350173	8904.98213368	9356.90024962	9094.96770046	10203.38556387	10986.33196379	11483.42707477	198.11022407	-72.68002363	153.50256993
13.28000000	8604.39017626	8907.74105892	9358.29463301	9094.10993029	10205.32443396	11002.28865957	11493.78915635	197.48708644	-72.95749821	154.03976174
13.29000000	8604.83327495	8910.96126135	9359.64089298	9094.57577157	10206.71690182	11013.67286220	11502.70814284	196.87341736	-73.22932311	154.01363815
13.30000000	8605.42758415	8914.52380998	9360.71866109	9096.50185792	10207.39345037	11019.30667557	11509.56118915	196.26204005	-73.49692516	153.34951396
13.31000000	8606.01520736	8918.27462152	9361.47618694	9099.61428922	10207.37452701	11019.42031394	11514.36902923	195.65199774	-73.76050226	152.30341393
13.32000000	8606.38357017	8922.03887468	9361.96119572	9103.39697250	10206.79264798	11015.07470110	11517.53207414	195.04600308	-74.01952734	151.32646392
13.33000000	8606.31939143	8925.64148016	9362.22269832	9107.33068446	10205.78177801	11007.34149763	11519.45564218	194.44681615	-74.27346395	150.87231143
13.34000000	8605.60939003	8928.90734865	9362.30970564	9110.89620180	10204.47588183	10997.29236412	11520.54505168	193.85719706	-74.52177564	151.39460398
13.35000000	8604.04028484	8931.66139083	9362.27122857	9113.57430124	10203.00892416	10985.99896116	11521.20562095	193.27990587	-74.76392597	153.34698908
13.36000000	8601.39879473	8933.72851740	9362.15627800	9114.84575950	10201.51486973	10974.53294934	11521.84266831	192.71770269	-74.99937847	157.18311424
13.37000000	8597.47163857	8934.93363904	9362.01386484	9114.19135327	10200.12768327	10963.96598923	11522.86151207	192.17334760	-75.22759671	163.35662698
13.38000000	8592.11491692	8935.14714525	9361.88738168	9111.19392749	10198.96080203	10955.21793420	11524.58434482	191.64858993	-75.44829484	172.06867127
13.39000000	8585.56000051	8934.48541027	9361.78983300	9105.98839157	10198.01663475	10948.38754578	11526.88375045	191.13971205	-75.66254246	182.15465524
13.40000000	8578.16455563	8933.14759351	9361.72399629	9098.89544989	10197.26022398	10943.29725055	11529.48099896	190.64115646	-75.87186534	191.99035437
13.41000000	8570.28634379	8931.33291673	9361.69264135	9090.23594683	10196.65658413	10939.76926682	11532.09724629	190.14736425	-76.07778960	199.95119778
13.42000000	8562.28312646	8929.24060172	9361.69853796	9080.33072680	10196.17072958	10937.62581293	11534.45364842	189.65277654	-76.28184136	204.41261460
13.43000000	8554.51266515	8927.06987025	9361.74445591	9069.50063416	10195.76767474	10936.68910719	11536.27136129	189.15183441	-76.48554674	203.75003392
13.44000000	8547.33272132	8925.01994410	9361.83316498	9058.06651333	10195.41243400	10936.78136794	11537.27154086	188.63897899	-76.69043185	196.33888489
13.45000000	8541.10105648	8923.29004504	9361.96743495	9046.34920868	10195.07002176	10937.72481350	11537.17534311	188.10865137	-76.89802281	180.55459660
